<?xml version="1.0"?>
<svg xmlns="http://www.w3.org/2000/svg" xmlns:xlink="http://www.w3.org/1999/xlink" xmlns:svgjs="http://svgjs.com/svgjs" version="1.1" width="512" height="512" x="0" y="0" viewBox="0 0 256 256" style="enable-background:new 0 0 512 512" xml:space="preserve" class=""><g><g xmlns="http://www.w3.org/2000/svg"><g><g><path d="m239.872 193.75h-131.004c-2.209 0-4-1.791-4-4v-177.347c0-2.209 1.791-4 4-4h131.004c2.209 0 4 1.791 4 4v177.347c0 2.209-1.791 4-4 4z" fill="#e0ebfc" data-original="#a4c9ff" style="" class=""/></g><g><path d="m228.067 55.494h-27v-30h27c1.657 0 3 1.343 3 3v24c0 1.657-1.343 3-3 3z" fill="#ffffff" data-original="#e0ebfc" style="" class=""/></g><g><path d="m201.067 55.494h-80.394c-1.657 0-3-1.343-3-3v-24c0-1.657 1.343-3 3-3h80.394z" fill="#ffffff" data-original="#e0ebfc" style="" class=""/></g><g><path d="m209.505 46.361h13.125c.817 0 1.289-.927.809-1.588l-6.562-9.032c-.399-.55-1.219-.55-1.618 0l-6.562 9.032c-.481.661-.009 1.588.808 1.588z" fill="#6bdddd" data-original="#6bdddd" style="" class=""/></g><g><path d="m228.067 95.494h-27v-30h27c1.657 0 3 1.343 3 3v24c0 1.657-1.343 3-3 3z" fill="#ffffff" data-original="#e0ebfc" style="" class=""/></g><g><path d="m201.067 95.494h-80.394c-1.657 0-3-1.343-3-3v-24c0-1.657 1.343-3 3-3h80.394z" fill="#ffffff" data-original="#e0ebfc" style="" class=""/></g><g><path d="m222.63 74.627h-13.125c-.817 0-1.289.927-.809 1.588l6.562 9.032c.399.55 1.219.55 1.618 0l6.562-9.032c.481-.661.009-1.588-.808-1.588z" fill="#a4c9ff" data-original="#f9a7a7" style="" class=""/></g><g><path d="m228.067 135.494h-27v-30h27c1.657 0 3 1.343 3 3v24c0 1.657-1.343 3-3 3z" fill="#ffffff" data-original="#e0ebfc" style="" class=""/></g><g><path d="m201.067 135.494h-80.394c-1.657 0-3-1.343-3-3v-24c0-1.657 1.343-3 3-3h80.394z" fill="#ffffff" data-original="#e0ebfc" style="" class=""/></g><g><g><path d="m223.817 122.994h-15.5c-1.381 0-2.5-1.119-2.5-2.5s1.119-2.5 2.5-2.5h15.5c1.381 0 2.5 1.119 2.5 2.5s-1.119 2.5-2.5 2.5z" fill="#4671c6" data-original="#4671c6" style="" class=""/></g></g><g><path d="m228.067 175.494h-27v-30h27c1.657 0 3 1.343 3 3v24c0 1.657-1.343 3-3 3z" fill="#ffffff" data-original="#e0ebfc" style="" class=""/></g><g><path d="m201.067 175.494h-80.394c-1.657 0-3-1.343-3-3v-24c0-1.657 1.343-3 3-3h80.394z" fill="#ffffff" data-original="#e0ebfc" style="" class=""/></g><g><path d="m209.505 166.361h13.125c.817 0 1.289-.927.809-1.588l-6.562-9.032c-.399-.55-1.219-.55-1.618 0l-6.562 9.032c-.481.661-.009 1.588.808 1.588z" fill="#6bdddd" data-original="#6bdddd" style="" class=""/></g><g><path d="m239.872 195.75h-131.004c-3.309 0-6-2.691-6-6v-177.347c0-3.309 2.691-6 6-6h131.004c3.309 0 6 2.691 6 6v177.347c0 3.309-2.691 6-6 6zm-131.004-185.347c-1.103 0-2 .897-2 2v177.347c0 1.103.897 2 2 2h131.004c1.103 0 2-.897 2-2v-177.347c0-1.103-.897-2-2-2z" fill="#001958" data-original="#3762cc" style="" class=""/></g><g><path d="m228.067 57.494h-27c-1.104 0-2-.896-2-2v-30c0-1.104.896-2 2-2h27c2.757 0 5 2.243 5 5v24c0 2.757-2.243 5-5 5zm-25-4h25c.552 0 1-.448 1-1v-24c0-.552-.448-1-1-1h-25z" fill="#001958" data-original="#3762cc" style="" class=""/></g><g><path d="m201.067 57.494h-80.395c-2.757 0-5-2.243-5-5v-24c0-2.757 2.243-5 5-5h80.395c1.104 0 2 .896 2 2v30c0 1.105-.895 2-2 2zm-80.394-30c-.551 0-1 .448-1 1v24c0 .552.449 1 1 1h78.395v-26z" fill="#001958" data-original="#3762cc" style="" class=""/></g><g><path d="m228.067 97.494h-27c-1.104 0-2-.896-2-2v-30c0-1.104.896-2 2-2h27c2.757 0 5 2.243 5 5v24c0 2.757-2.243 5-5 5zm-25-4h25c.552 0 1-.448 1-1v-24c0-.552-.448-1-1-1h-25z" fill="#001958" data-original="#3762cc" style="" class=""/></g><g><path d="m201.067 97.494h-80.395c-2.757 0-5-2.243-5-5v-24c0-2.757 2.243-5 5-5h80.395c1.104 0 2 .896 2 2v30c0 1.105-.895 2-2 2zm-80.394-30c-.551 0-1 .448-1 1v24c0 .552.449 1 1 1h78.395v-26z" fill="#001958" data-original="#3762cc" style="" class=""/></g><g><path d="m228.067 137.494h-27c-1.104 0-2-.896-2-2v-30c0-1.104.896-2 2-2h27c2.757 0 5 2.243 5 5v24c0 2.757-2.243 5-5 5zm-25-4h25c.552 0 1-.448 1-1v-24c0-.552-.448-1-1-1h-25z" fill="#001958" data-original="#3762cc" style="" class=""/></g><g><path d="m201.067 137.494h-80.395c-2.757 0-5-2.243-5-5v-24c0-2.757 2.243-5 5-5h80.395c1.104 0 2 .896 2 2v30c0 1.105-.895 2-2 2zm-80.394-30c-.551 0-1 .448-1 1v24c0 .552.449 1 1 1h78.395v-26z" fill="#001958" data-original="#3762cc" style="" class=""/></g><g><path d="m228.067 177.494h-27c-1.104 0-2-.896-2-2v-30c0-1.104.896-2 2-2h27c2.757 0 5 2.243 5 5v24c0 2.757-2.243 5-5 5zm-25-4h25c.552 0 1-.448 1-1v-24c0-.552-.448-1-1-1h-25z" fill="#001958" data-original="#3762cc" style="" class=""/></g><g><path d="m201.067 177.494h-80.395c-2.757 0-5-2.243-5-5v-24c0-2.757 2.243-5 5-5h80.395c1.104 0 2 .896 2 2v30c0 1.105-.895 2-2 2zm-80.394-30c-.551 0-1 .448-1 1v24c0 .552.449 1 1 1h78.395v-26z" fill="#001958" data-original="#3762cc" style="" class=""/></g></g><g><path d="m68.41 100.494c-1.521 0-2.933.685-3.875 1.878s-1.28 2.726-.928 4.205l5.559 23.295c.532 2.232 2.507 3.791 4.802 3.791h10.469v-33.169zm6.71 26.773-4.861-20.376h7.781v20.376z" fill="#ffea92" data-original="#ffea92" style="" class=""/></g><g><path d="m138.457 102.372c-.942-1.193-2.354-1.878-3.875-1.878h-16.026v33.169h10.469c2.295 0 4.27-1.559 4.802-3.791l5.559-23.295c.351-1.479.013-3.012-.929-4.205zm-13.505 24.895v-20.376h7.781l-4.86 20.376z" fill="#ffea92" data-original="#ffea92" style="" class=""/></g><g><path d="m84.437 135.663h-10.469c-3.225 0-6-2.19-6.747-5.327l-5.559-23.295c-.496-2.079-.021-4.232 1.303-5.908 1.324-1.677 3.309-2.639 5.445-2.639h16.026c1.104 0 2 .896 2 2v33.169c.001 1.105-.895 2-1.999 2zm-16.027-33.169c-.904 0-1.745.407-2.305 1.117s-.762 1.622-.552 2.502l5.559 23.295c.317 1.328 1.491 2.255 2.856 2.255h8.469v-29.169zm9.63 26.773h-2.92c-.926 0-1.73-.636-1.945-1.536l-4.861-20.376c-.142-.595-.004-1.223.375-1.703s.958-.761 1.57-.761h7.781c1.104 0 2 .896 2 2v20.376c0 1.104-.895 2-2 2zm-5.248-20.376 3.248 13.613v-13.613z" fill="#001958" data-original="#3762cc" style="" class=""/></g><g><path d="m129.024 135.663h-10.469c-1.104 0-2-.896-2-2v-33.169c0-1.104.896-2 2-2h16.026c2.136 0 4.12.962 5.444 2.639 1.324 1.676 1.799 3.829 1.304 5.908l-5.559 23.295c-.747 3.137-3.521 5.327-6.746 5.327zm-8.468-4h8.469c1.365 0 2.54-.927 2.856-2.255l5.559-23.295c.21-.88.009-1.792-.552-2.502-.562-.71-1.401-1.117-2.306-1.117h-14.026zm7.317-2.396h-2.921c-1.104 0-2-.896-2-2v-20.376c0-1.104.896-2 2-2h7.781c.612 0 1.19.28 1.569.761.38.48.519 1.108.376 1.703l-4.86 20.376c-.214.9-1.019 1.536-1.945 1.536zm-.921-20.376v13.617l3.248-13.617z" fill="#001958" data-original="#3762cc" style="" class=""/></g><g><g><path d="m194.992 248h-62.331v-26.92h58.435c2.152 0 3.896 1.744 3.896 3.896z" fill="#a4c9ff" data-original="#f9a7a7" style="" class=""/></g><g><path d="m74.226 167.239c-2.152 0-3.896 1.744-3.896 3.896v23.025 26.92 26.92h62.331v-26.92-26.92-23.025c0-2.152-1.744-3.896-3.896-3.896z" fill="#a4c9ff" data-original="#f9a7a7" style="" class=""/></g><g><path d="m11.896 194.16c-2.152 0-3.896 1.744-3.896 3.896v23.024 26.92h62.331v-26.92-26.92z" fill="#a4c9ff" data-original="#f9a7a7" style="" class=""/></g></g><g><path d="m98.124 105.602h6.744v53.953h-6.744z" fill="#ffea92" data-original="#ffea92" style="" class=""/></g><g><path d="m104.868 161.555h-6.744c-1.104 0-2-.896-2-2v-53.953c0-1.104.896-2 2-2h6.744c1.104 0 2 .896 2 2v53.953c0 1.104-.895 2-2 2zm-4.744-4h2.744v-49.953h-2.744z" fill="#001958" data-original="#3762cc" style="" class=""/></g><g><path d="m102.714 145.549h-2.437c-12.565 0-22.751-10.186-22.751-22.751v-30.29h47.938v30.291c.001 12.564-10.185 22.75-22.75 22.75z" fill="#ffea92" data-original="#ffea92" style="" class=""/></g><g><path d="m102.714 147.549h-2.437c-13.647 0-24.75-11.103-24.75-24.75v-30.291c0-1.104.896-2 2-2h47.938c1.104 0 2 .896 2 2v30.291c0 13.647-11.103 24.75-24.751 24.75zm-23.187-53.041v28.291c0 11.441 9.309 20.75 20.75 20.75h2.437c11.442 0 20.75-9.309 20.75-20.75v-28.291z" fill="#001958" data-original="#3762cc" style="" class=""/></g><g><path d="m104.868 157.032c-2.44 0-4.304 0-6.744 0-2.836 3.483-4.49 6.19-8.758 7.339l-2.67.719c-1.234.332-.994 2.15.284 2.15h14.515 14.515c1.278 0 1.518-1.817.284-2.15l-2.67-.719c-4.259-1.147-5.905-3.838-8.756-7.339z" fill="#ffea92" data-original="#ffea92" style="" class=""/></g><g><path d="m116.011 169.239h-29.03c-1.571 0-2.861-1.131-3.067-2.688-.206-1.558.746-2.984 2.263-3.393l2.669-.719c3.084-.83 4.511-2.628 6.67-5.351.338-.426.687-.866 1.057-1.319.38-.467.949-.737 1.551-.737h6.744c.602 0 1.171.271 1.551.737.37.453.719.894 1.057 1.319 2.162 2.723 3.59 4.521 6.67 5.351l2.67.719c1.517.408 2.468 1.835 2.263 3.393-.206 1.557-1.496 2.688-3.068 2.688zm-23.37-4h17.711c-2.592-1.358-4.207-3.394-6.009-5.664-.142-.178-.286-.359-.432-.543h-4.829c-.146.184-.29.365-.432.543-1.801 2.271-3.416 4.305-6.009 5.664z" fill="#001958" data-original="#3762cc" style="" class=""/></g><g><path d="m128.478 95.019h-53.963c-1.105 0-2-.895-2-2v-4c0-1.105.895-2 2-2h53.963c1.105 0 2 .895 2 2v4c0 1.104-.896 2-2 2z" fill="#ffea92" data-original="#ffea92" style="" class=""/></g><g><g><path d="m98.515 130.535-.022-20.623-4.111 2.547c-2.763 1.473-5.301-2.363-2.19-4.357 8.651-5.015 8.694-5.202 9.942-5.228 2.413 0 3.33 2.009 3.33 4.446l.022 23.527c0 2.424-1.059 4.335-3.508 4.335-2.513 0-3.463-2.089-3.463-4.647z" fill="#4671c6" data-original="#4671c6" style="" class=""/></g></g><g><path d="m128.478 97.019h-53.963c-2.206 0-4-1.794-4-4v-4c0-2.206 1.794-4 4-4h53.963c2.206 0 4 1.794 4 4v4c0 2.206-1.794 4-4 4zm-53.963-8v4h53.965l-.002-4z" fill="#001958" data-original="#3762cc" style="" class=""/></g><g><g><path d="m194.992 250h-62.331c-1.104 0-2-.896-2-2v-26.92c0-1.104.896-2 2-2h58.436c3.251 0 5.896 2.645 5.896 5.896v23.024c-.001 1.104-.896 2-2.001 2zm-60.331-4h58.331v-21.024c0-1.045-.851-1.896-1.896-1.896h-56.436v22.92z" fill="#001958" data-original="#3762cc" style="" class=""/></g><g><path d="m132.661 250h-62.33c-1.104 0-2-.896-2-2v-76.865c0-3.251 2.645-5.896 5.896-5.896h54.539c3.251 0 5.896 2.645 5.896 5.896v76.865c-.001 1.104-.896 2-2.001 2zm-60.33-4h58.331v-74.865c0-1.045-.851-1.896-1.896-1.896h-54.539c-1.045 0-1.896.851-1.896 1.896z" fill="#001958" data-original="#3762cc" style="" class=""/></g><g><path d="m70.331 250h-62.331c-1.104 0-2-.896-2-2v-49.944c0-3.251 2.645-5.896 5.896-5.896h58.435c1.104 0 2 .896 2 2v53.84c0 1.104-.896 2-2 2zm-60.331-4h58.331v-49.84h-56.435c-1.045 0-1.896.851-1.896 1.896z" fill="#001958" data-original="#3762cc" style="" class=""/></g></g></g></g></svg>
